<?xml version="1.0" encoding="UTF-8"?>
<svg id="_레이어_1" data-name="레이어 1" xmlns="http://www.w3.org/2000/svg" viewBox="0 0 100 100">
  <defs>
    <style>
      .cls-1 {
        fill: #ededec;
        opacity: .6;
      }

      .cls-1, .cls-2 {
        stroke-width: 0px;
      }

      .cls-2 {
        fill: #a4d9ec;
      }
    </style>
  </defs>
  <path class="cls-2" d="M80.87,24.95h-8.52l3.45-3.45c.8-.8.8-2.1,0-2.9-.8-.8-2.1-.8-2.9,0l-3.45,3.45v-8.52c0-1.13-.92-2.05-2.05-2.05s-2.05.92-2.05,2.05v8.52l-3.45-3.45c-.8-.8-2.1-.8-2.9,0-.8.8-.8,2.1,0,2.9l3.45,3.45h-8.21c-1.13,0-2.05.92-2.05,2.05s.92,2.05,2.05,2.05h8.21l-3.45,3.45c-.8.8-.8,2.1,0,2.9.4.4.93.6,1.45.6s1.05-.2,1.45-.6l3.45-3.45v8.21c0,1.13.92,2.05,2.05,2.05s2.05-.92,2.05-2.05v-8.21l3.45,3.45c.4.4.93.6,1.45.6s1.05-.2,1.45-.6c.8-.8.8-2.1,0-2.9l-3.45-3.45h8.52c1.13,0,2.05-.92,2.05-2.05s-.92-2.05-2.05-2.05Z"/>
  <path class="cls-2" d="M39.96,84.04h-2.22l.9-.9c.21-.21.21-.55,0-.75-.21-.21-.55-.21-.75,0l-.9.9v-2.22c0-.29-.24-.53-.53-.53s-.53.24-.53.53v2.22l-.9-.9c-.21-.21-.55-.21-.75,0-.21.21-.21.55,0,.75l.9.9h-2.14c-.29,0-.53.24-.53.53s.24.53.53.53h2.14l-.9.9c-.21.21-.21.55,0,.75.1.1.24.16.38.16s.27-.05.38-.16l.9-.9v2.13c0,.29.24.53.53.53s.53-.24.53-.53v-2.13l.9.9c.1.1.24.16.38.16s.27-.05.38-.16c.21-.21.21-.55,0-.75l-.9-.9h2.22c.29,0,.53-.24.53-.53s-.24-.53-.53-.53Z"/>
  <path class="cls-2" d="M27.8,42.34h-1.78l.72-.72c.17-.17.17-.44,0-.61-.17-.17-.44-.17-.61,0l-.72.72v-1.78c0-.24-.19-.43-.43-.43s-.43.19-.43.43v1.78l-.72-.72c-.17-.17-.44-.17-.61,0-.17.17-.17.44,0,.61l.72.72h-1.72c-.24,0-.43.19-.43.43s.19.43.43.43h1.72l-.72.72c-.17.17-.17.44,0,.61.08.08.19.13.3.13s.22-.04.3-.13l.72-.72v1.71c0,.24.19.43.43.43s.43-.19.43-.43v-1.71l.72.72c.08.08.19.13.3.13s.22-.04.3-.13c.17-.17.17-.44,0-.61l-.72-.72h1.78c.24,0,.43-.19.43-.43s-.19-.43-.43-.43Z"/>
  <path class="cls-2" d="M73.34,81.1h-2.25l.91-.91c.21-.21.21-.55,0-.77-.21-.21-.55-.21-.77,0l-.91.91v-2.25c0-.3-.24-.54-.54-.54s-.54.24-.54.54v2.25l-.91-.91c-.21-.21-.55-.21-.77,0-.21.21-.21.55,0,.77l.91.91h-2.17c-.3,0-.54.24-.54.54s.24.54.54.54h2.17l-.91.91c-.21.21-.21.55,0,.77.11.11.24.16.38.16s.28-.05.38-.16l.91-.91v2.17c0,.3.24.54.54.54s.54-.24.54-.54v-2.17l.91.91c.11.11.24.16.38.16s.28-.05.38-.16c.21-.21.21-.55,0-.77l-.91-.91h2.25c.3,0,.54-.24.54-.54s-.24-.54-.54-.54Z"/>
  <path class="cls-1" d="M77.55,31.41c-5.58,0-10.68,2.05-14.61,5.43-3.39-13.99-15.99-24.38-31.02-24.38C14.29,12.46,0,26.75,0,44.38s14.29,31.92,31.92,31.92h45.63c12.4,0,22.45-10.05,22.45-22.45s-10.05-22.45-22.45-22.45Z"/>
</svg>