<?xml version="1.0" encoding="UTF-8"?>
<svg id="_레이어_1" data-name="레이어 1" xmlns="http://www.w3.org/2000/svg" viewBox="0 0 100 100">
  <defs>
    <style>
      .cls-1 {
        fill: #ededec;
        opacity: .6;
      }

      .cls-1, .cls-2 {
        stroke-width: 0px;
      }

      .cls-2 {
        fill: #a4d9ec;
      }
    </style>
  </defs>
  <g>
    <g>
      <path class="cls-2" d="M34.91,81.98c-.87,0-1.58-.71-1.58-1.58v-19.43c0-.87.71-1.58,1.58-1.58s1.58.71,1.58,1.58v19.43c0,.87-.71,1.58-1.58,1.58Z"/>
      <path class="cls-2" d="M34.91,90.36c-.87,0-1.58-.71-1.58-1.58v-3.3c0-.87.71-1.58,1.58-1.58s1.58.71,1.58,1.58v3.3c0,.87-.71,1.58-1.58,1.58Z"/>
    </g>
    <g>
      <path class="cls-2" d="M64.84,86.4c-.87,0-1.58-.69-1.58-1.53v-6.91c0-.85.71-1.53,1.58-1.53s1.58.69,1.58,1.53v6.91c0,.85-.71,1.53-1.58,1.53Z"/>
      <path class="cls-2" d="M64.84,74.54c-.87,0-1.58-.71-1.58-1.58v-11.99c0-.87.71-1.58,1.58-1.58s1.58.71,1.58,1.58v11.99c0,.87-.71,1.58-1.58,1.58Z"/>
    </g>
    <g>
      <path class="cls-2" d="M54.42,82.55c-.87,0-1.58-.71-1.58-1.58v-3.3c0-.87.71-1.58,1.58-1.58s1.58.71,1.58,1.58v3.3c0,.87-.71,1.58-1.58,1.58Z"/>
      <path class="cls-2" d="M54.42,74.54c-.87,0-1.58-.71-1.58-1.58v-11.99c0-.87.71-1.58,1.58-1.58s1.58.71,1.58,1.58v11.99c0,.87-.71,1.58-1.58,1.58Z"/>
    </g>
    <path class="cls-2" d="M44.44,84.74c-.87,0-1.58-.71-1.58-1.58v-22.2c0-.87.71-1.58,1.58-1.58s1.58.71,1.58,1.58v22.2c0,.87-.71,1.58-1.58,1.58Z"/>
  </g>
  <path class="cls-1" d="M77.55,28.59c-5.58,0-10.68,2.05-14.61,5.43-3.39-13.99-15.99-24.38-31.02-24.38C14.29,9.64,0,23.93,0,41.56s14.29,31.92,31.92,31.92h45.63c12.4,0,22.45-10.05,22.45-22.45s-10.05-22.45-22.45-22.45Z"/>
</svg>