<?xml version="1.0" encoding="UTF-8"?>
<svg id="_레이어_1" data-name="레이어 1" xmlns="http://www.w3.org/2000/svg" viewBox="0 0 100 100">
  <defs>
    <style>
      .cls-1 {
        fill: #ededec;
        opacity: .6;
        stroke-width: 0px;
      }

      .cls-2 {
        opacity: .8;
      }
    </style>
  </defs>
  <g class="cls-2">
    <path class="cls-1" d="M77.55,41.93c-5.58,0-10.68,2.05-14.61,5.43-3.39-13.99-15.99-24.38-31.02-24.38C14.29,22.98,0,37.27,0,54.9s14.29,31.92,31.92,31.92h45.63c12.4,0,22.45-10.05,22.45-22.45s-10.05-22.45-22.45-22.45Z"/>
  </g>
  <g class="cls-2">
    <path class="cls-1" d="M81.42,26.45c-3.32,0-6.36,1.22-8.7,3.23-2.02-8.32-9.52-14.51-18.46-14.51-10.49,0-19,8.51-19,19s8.51,19,19,19h27.16c7.38,0,13.36-5.98,13.36-13.36s-5.98-13.36-13.36-13.36Z"/>
  </g>
</svg>